<?xml version="1.0" encoding="UTF-8" standalone="no"?>
<!DOCTYPE svg PUBLIC "-//W3C//DTD SVG 1.1//EN"
 "http://www.w3.org/Graphics/SVG/1.1/DTD/svg11.dtd">
<!-- Generated by graphviz version 2.43.0 (0)
 -->
<!-- Title: snakemake_dag Pages: 1 -->
<svg width="2769pt" height="481pt"
 viewBox="0.00 0.00 2768.81 481.00" xmlns="http://www.w3.org/2000/svg" xmlns:xlink="http://www.w3.org/1999/xlink">
<g id="graph0" class="graph" transform="scale(1 1) rotate(0) translate(4 477)">
<title>snakemake_dag</title>
<polygon fill="white" stroke="transparent" points="-4,4 -4,-477 2764.81,-477 2764.81,4 -4,4"/>
<!-- 0 -->
<g id="node1" class="node">
<title>0</title>
<path fill="none" stroke="#afd856" stroke-width="2" stroke-dasharray="5,2" d="M1339.02,-36C1339.02,-36 1309.02,-36 1309.02,-36 1303.02,-36 1297.02,-30 1297.02,-24 1297.02,-24 1297.02,-12 1297.02,-12 1297.02,-6 1303.02,0 1309.02,0 1309.02,0 1339.02,0 1339.02,0 1345.02,0 1351.02,-6 1351.02,-12 1351.02,-12 1351.02,-24 1351.02,-24 1351.02,-30 1345.02,-36 1339.02,-36"/>
<text text-anchor="middle" x="1324.02" y="-15.5" font-family="sans" font-size="10.00">all</text>
</g>
<!-- 1 -->
<g id="node2" class="node">
<title>1</title>
<path fill="none" stroke="#68d856" stroke-width="2" stroke-dasharray="5,2" d="M971.02,-398.5C971.02,-398.5 927.02,-398.5 927.02,-398.5 921.02,-398.5 915.02,-392.5 915.02,-386.5 915.02,-386.5 915.02,-374.5 915.02,-374.5 915.02,-368.5 921.02,-362.5 927.02,-362.5 927.02,-362.5 971.02,-362.5 971.02,-362.5 977.02,-362.5 983.02,-368.5 983.02,-374.5 983.02,-374.5 983.02,-386.5 983.02,-386.5 983.02,-392.5 977.02,-398.5 971.02,-398.5"/>
<text text-anchor="middle" x="949.02" y="-378" font-family="sans" font-size="10.00">star_index</text>
</g>
<!-- 1&#45;&gt;0 -->
<g id="edge1" class="edge">
<title>1&#45;&gt;0</title>
<path fill="none" stroke="grey" stroke-width="2" d="M975.23,-362.41C1008.61,-338.33 1062.02,-291.05 1062.02,-235 1062.02,-235 1062.02,-235 1062.02,-161 1062.02,-59.91 1214.65,-30.41 1286.92,-22.11"/>
<polygon fill="grey" stroke="grey" stroke-width="2" points="1287.4,-25.58 1296.97,-21.03 1286.66,-18.62 1287.4,-25.58"/>
</g>
<!-- 7 -->
<g id="node8" class="node">
<title>7</title>
<path fill="none" stroke="#56d88a" stroke-width="2" stroke-dasharray="5,2" d="M431.52,-324C431.52,-324 390.52,-324 390.52,-324 384.52,-324 378.52,-318 378.52,-312 378.52,-312 378.52,-300 378.52,-300 378.52,-294 384.52,-288 390.52,-288 390.52,-288 431.52,-288 431.52,-288 437.52,-288 443.52,-294 443.52,-300 443.52,-300 443.52,-312 443.52,-312 443.52,-318 437.52,-324 431.52,-324"/>
<text text-anchor="middle" x="411.02" y="-303.5" font-family="sans" font-size="10.00">star_align</text>
</g>
<!-- 1&#45;&gt;7 -->
<g id="edge23" class="edge">
<title>1&#45;&gt;7</title>
<path fill="none" stroke="grey" stroke-width="2" d="M914.64,-362.77C911.77,-361.72 908.87,-360.78 906.02,-360 743.13,-315.58 540.6,-308.09 453.78,-307.04"/>
<polygon fill="grey" stroke="grey" stroke-width="2" points="453.56,-303.53 443.53,-306.93 453.5,-310.53 453.56,-303.53"/>
</g>
<!-- 12 -->
<g id="node13" class="node">
<title>12</title>
<path fill="none" stroke="#56d88a" stroke-width="2" stroke-dasharray="5,2" d="M871.52,-324C871.52,-324 830.52,-324 830.52,-324 824.52,-324 818.52,-318 818.52,-312 818.52,-312 818.52,-300 818.52,-300 818.52,-294 824.52,-288 830.52,-288 830.52,-288 871.52,-288 871.52,-288 877.52,-288 883.52,-294 883.52,-300 883.52,-300 883.52,-312 883.52,-312 883.52,-318 877.52,-324 871.52,-324"/>
<text text-anchor="middle" x="851.02" y="-303.5" font-family="sans" font-size="10.00">star_align</text>
</g>
<!-- 1&#45;&gt;12 -->
<g id="edge28" class="edge">
<title>1&#45;&gt;12</title>
<path fill="none" stroke="grey" stroke-width="2" d="M925.8,-362.32C912.86,-352.75 896.57,-340.7 882.51,-330.29"/>
<polygon fill="grey" stroke="grey" stroke-width="2" points="884.2,-327.19 874.08,-324.06 880.04,-332.82 884.2,-327.19"/>
</g>
<!-- 17 -->
<g id="node18" class="node">
<title>17</title>
<path fill="none" stroke="#56d88a" stroke-width="2" stroke-dasharray="5,2" d="M1226.52,-324C1226.52,-324 1185.52,-324 1185.52,-324 1179.52,-324 1173.52,-318 1173.52,-312 1173.52,-312 1173.52,-300 1173.52,-300 1173.52,-294 1179.52,-288 1185.52,-288 1185.52,-288 1226.52,-288 1226.52,-288 1232.52,-288 1238.52,-294 1238.52,-300 1238.52,-300 1238.52,-312 1238.52,-312 1238.52,-318 1232.52,-324 1226.52,-324"/>
<text text-anchor="middle" x="1206.02" y="-303.5" font-family="sans" font-size="10.00">star_align</text>
</g>
<!-- 1&#45;&gt;17 -->
<g id="edge33" class="edge">
<title>1&#45;&gt;17</title>
<path fill="none" stroke="grey" stroke-width="2" d="M983.06,-363.38C986.07,-362.17 989.08,-361.02 992.02,-360 1050.1,-339.83 1119.54,-324.11 1163.23,-315.19"/>
<polygon fill="grey" stroke="grey" stroke-width="2" points="1164.11,-318.58 1173.22,-313.18 1162.72,-311.72 1164.11,-318.58"/>
</g>
<!-- 22 -->
<g id="node23" class="node">
<title>22</title>
<path fill="none" stroke="#56d88a" stroke-width="2" stroke-dasharray="5,2" d="M1567.52,-324C1567.52,-324 1526.52,-324 1526.52,-324 1520.52,-324 1514.52,-318 1514.52,-312 1514.52,-312 1514.52,-300 1514.52,-300 1514.52,-294 1520.52,-288 1526.52,-288 1526.52,-288 1567.52,-288 1567.52,-288 1573.52,-288 1579.52,-294 1579.52,-300 1579.52,-300 1579.52,-312 1579.52,-312 1579.52,-318 1573.52,-324 1567.52,-324"/>
<text text-anchor="middle" x="1547.02" y="-303.5" font-family="sans" font-size="10.00">star_align</text>
</g>
<!-- 1&#45;&gt;22 -->
<g id="edge38" class="edge">
<title>1&#45;&gt;22</title>
<path fill="none" stroke="grey" stroke-width="2" d="M983.38,-362.69C986.26,-361.66 989.17,-360.74 992.02,-360 1180.22,-311.13 1234.81,-345.76 1428.02,-324 1453.47,-321.13 1481.86,-317.11 1504.53,-313.7"/>
<polygon fill="grey" stroke="grey" stroke-width="2" points="1505.15,-317.14 1514.51,-312.18 1504.1,-310.22 1505.15,-317.14"/>
</g>
<!-- 27 -->
<g id="node28" class="node">
<title>27</title>
<path fill="none" stroke="#56d88a" stroke-width="2" stroke-dasharray="5,2" d="M1947.52,-324C1947.52,-324 1906.52,-324 1906.52,-324 1900.52,-324 1894.52,-318 1894.52,-312 1894.52,-312 1894.52,-300 1894.52,-300 1894.52,-294 1900.52,-288 1906.52,-288 1906.52,-288 1947.52,-288 1947.52,-288 1953.52,-288 1959.52,-294 1959.52,-300 1959.52,-300 1959.52,-312 1959.52,-312 1959.52,-318 1953.52,-324 1947.52,-324"/>
<text text-anchor="middle" x="1927.02" y="-303.5" font-family="sans" font-size="10.00">star_align</text>
</g>
<!-- 1&#45;&gt;27 -->
<g id="edge43" class="edge">
<title>1&#45;&gt;27</title>
<path fill="none" stroke="grey" stroke-width="2" d="M983.36,-362.61C986.25,-361.6 989.16,-360.7 992.02,-360 1013.97,-354.6 1703.73,-318.57 1884.17,-309.21"/>
<polygon fill="grey" stroke="grey" stroke-width="2" points="1884.53,-312.7 1894.34,-308.69 1884.17,-305.71 1884.53,-312.7"/>
</g>
<!-- 32 -->
<g id="node33" class="node">
<title>32</title>
<path fill="none" stroke="#56d88a" stroke-width="2" stroke-dasharray="5,2" d="M2387.52,-324C2387.52,-324 2346.52,-324 2346.52,-324 2340.52,-324 2334.52,-318 2334.52,-312 2334.52,-312 2334.52,-300 2334.52,-300 2334.52,-294 2340.52,-288 2346.52,-288 2346.52,-288 2387.52,-288 2387.52,-288 2393.52,-288 2399.52,-294 2399.52,-300 2399.52,-300 2399.52,-312 2399.52,-312 2399.52,-318 2393.52,-324 2387.52,-324"/>
<text text-anchor="middle" x="2367.02" y="-303.5" font-family="sans" font-size="10.00">star_align</text>
</g>
<!-- 1&#45;&gt;32 -->
<g id="edge48" class="edge">
<title>1&#45;&gt;32</title>
<path fill="none" stroke="grey" stroke-width="2" d="M983.35,-362.55C986.24,-361.55 989.15,-360.68 992.02,-360 1203.5,-310.2 1751.94,-332.64 1969.02,-324 2098.29,-318.86 2251.14,-312.15 2324.09,-308.92"/>
<polygon fill="grey" stroke="grey" stroke-width="2" points="2324.43,-312.4 2334.27,-308.46 2324.12,-305.41 2324.43,-312.4"/>
</g>
<!-- 2 -->
<g id="node3" class="node">
<title>2</title>
<path fill="none" stroke="#88d856" stroke-width="2" stroke-dasharray="5,2" d="M714.52,-473C714.52,-473 661.52,-473 661.52,-473 655.52,-473 649.52,-467 649.52,-461 649.52,-461 649.52,-449 649.52,-449 649.52,-443 655.52,-437 661.52,-437 661.52,-437 714.52,-437 714.52,-437 720.52,-437 726.52,-443 726.52,-449 726.52,-449 726.52,-461 726.52,-461 726.52,-467 720.52,-473 714.52,-473"/>
<text text-anchor="middle" x="688.02" y="-452.5" font-family="sans" font-size="10.00">get_genome</text>
</g>
<!-- 2&#45;&gt;1 -->
<g id="edge8" class="edge">
<title>2&#45;&gt;1</title>
<path fill="none" stroke="grey" stroke-width="2" d="M726.85,-446.85C768.96,-438.59 838.15,-423.57 905.5,-400.88"/>
<polygon fill="grey" stroke="grey" stroke-width="2" points="906.67,-404.18 914.99,-397.63 904.4,-397.56 906.67,-404.18"/>
</g>
<!-- 4 -->
<g id="node5" class="node">
<title>4</title>
<path fill="none" stroke="#56c1d8" stroke-width="2" stroke-dasharray="5,2" d="M523.02,-180C523.02,-180 461.02,-180 461.02,-180 455.02,-180 449.02,-174 449.02,-168 449.02,-168 449.02,-156 449.02,-156 449.02,-150 455.02,-144 461.02,-144 461.02,-144 523.02,-144 523.02,-144 529.02,-144 535.02,-150 535.02,-156 535.02,-156 535.02,-168 535.02,-168 535.02,-174 529.02,-180 523.02,-180"/>
<text text-anchor="middle" x="492.02" y="-159.5" font-family="sans" font-size="10.00">genome_faidx</text>
</g>
<!-- 2&#45;&gt;4 -->
<g id="edge10" class="edge">
<title>2&#45;&gt;4</title>
<path fill="none" stroke="grey" stroke-width="2" d="M649.1,-453.88C513.58,-453.07 68.4,-446.91 26.02,-401 -103.05,-261.18 291.11,-190.83 438.65,-169.87"/>
<polygon fill="grey" stroke="grey" stroke-width="2" points="439.42,-173.3 448.84,-168.45 438.45,-166.37 439.42,-173.3"/>
</g>
<!-- 3 -->
<g id="node4" class="node">
<title>3</title>
<path fill="none" stroke="#56d86b" stroke-width="2" stroke-dasharray="5,2" d="M1243.02,-473C1243.02,-473 1177.02,-473 1177.02,-473 1171.02,-473 1165.02,-467 1165.02,-461 1165.02,-461 1165.02,-449 1165.02,-449 1165.02,-443 1171.02,-437 1177.02,-437 1177.02,-437 1243.02,-437 1243.02,-437 1249.02,-437 1255.02,-443 1255.02,-449 1255.02,-449 1255.02,-461 1255.02,-461 1255.02,-467 1249.02,-473 1243.02,-473"/>
<text text-anchor="middle" x="1210.02" y="-452.5" font-family="sans" font-size="10.00">get_annotation</text>
</g>
<!-- 3&#45;&gt;1 -->
<g id="edge9" class="edge">
<title>3&#45;&gt;1</title>
<path fill="none" stroke="grey" stroke-width="2" d="M1164.64,-445.55C1122.14,-437.07 1056.86,-422.57 992.54,-400.88"/>
<polygon fill="grey" stroke="grey" stroke-width="2" points="993.65,-397.56 983.06,-397.63 991.38,-404.18 993.65,-397.56"/>
</g>
<!-- 37 -->
<g id="node38" class="node">
<title>37</title>
<path fill="none" stroke="#d85656" stroke-width="2" stroke-dasharray="5,2" d="M2630.52,-324C2630.52,-324 2589.52,-324 2589.52,-324 2583.52,-324 2577.52,-318 2577.52,-312 2577.52,-312 2577.52,-300 2577.52,-300 2577.52,-294 2583.52,-288 2589.52,-288 2589.52,-288 2630.52,-288 2630.52,-288 2636.52,-288 2642.52,-294 2642.52,-300 2642.52,-300 2642.52,-312 2642.52,-312 2642.52,-318 2636.52,-324 2630.52,-324"/>
<text text-anchor="middle" x="2610.02" y="-303.5" font-family="sans" font-size="10.00">gene_info</text>
</g>
<!-- 3&#45;&gt;37 -->
<g id="edge49" class="edge">
<title>3&#45;&gt;37</title>
<path fill="none" stroke="grey" stroke-width="2" d="M1255.27,-454.19C1504.29,-455.04 2698.69,-456.2 2752.02,-401 2764.69,-387.9 2762.41,-374.97 2752.02,-360 2729.89,-328.11 2686.1,-315.37 2652.98,-310.31"/>
<polygon fill="grey" stroke="grey" stroke-width="2" points="2653.01,-306.78 2642.64,-308.92 2652.08,-313.72 2653.01,-306.78"/>
</g>
<!-- 4&#45;&gt;0 -->
<g id="edge2" class="edge">
<title>4&#45;&gt;0</title>
<path fill="none" stroke="grey" stroke-width="2" d="M535.29,-153.62C680.77,-128.79 1150.72,-48.58 1286.79,-25.35"/>
<polygon fill="grey" stroke="grey" stroke-width="2" points="1287.46,-28.79 1296.73,-23.66 1286.29,-21.89 1287.46,-28.79"/>
</g>
<!-- 5 -->
<g id="node6" class="node">
<title>5</title>
<path fill="none" stroke="#56d8a9" stroke-width="2" stroke-dasharray="5,2" d="M1468.52,-180C1468.52,-180 1427.52,-180 1427.52,-180 1421.52,-180 1415.52,-174 1415.52,-168 1415.52,-168 1415.52,-156 1415.52,-156 1415.52,-150 1421.52,-144 1427.52,-144 1427.52,-144 1468.52,-144 1468.52,-144 1474.52,-144 1480.52,-150 1480.52,-156 1480.52,-156 1480.52,-168 1480.52,-168 1480.52,-174 1474.52,-180 1468.52,-180"/>
<text text-anchor="middle" x="1448.02" y="-159.5" font-family="sans" font-size="10.00">normalise</text>
</g>
<!-- 5&#45;&gt;0 -->
<g id="edge3" class="edge">
<title>5&#45;&gt;0</title>
<path fill="none" stroke="grey" stroke-width="2" d="M1445.25,-143.85C1441.38,-124.52 1432.74,-93.06 1415.02,-72 1400.59,-54.84 1379.11,-41.96 1360.64,-33.2"/>
<polygon fill="grey" stroke="grey" stroke-width="2" points="1361.86,-29.91 1351.31,-28.99 1358.98,-36.29 1361.86,-29.91"/>
</g>
<!-- 38 -->
<g id="node39" class="node">
<title>38</title>
<path fill="none" stroke="#56d8d0" stroke-width="2" stroke-dasharray="5,2" d="M1504.02,-108C1504.02,-108 1474.02,-108 1474.02,-108 1468.02,-108 1462.02,-102 1462.02,-96 1462.02,-96 1462.02,-84 1462.02,-84 1462.02,-78 1468.02,-72 1474.02,-72 1474.02,-72 1504.02,-72 1504.02,-72 1510.02,-72 1516.02,-78 1516.02,-84 1516.02,-84 1516.02,-96 1516.02,-96 1516.02,-102 1510.02,-108 1504.02,-108"/>
<text text-anchor="middle" x="1489.02" y="-87.5" font-family="sans" font-size="10.00">qc_plot</text>
</g>
<!-- 5&#45;&gt;38 -->
<g id="edge50" class="edge">
<title>5&#45;&gt;38</title>
<path fill="none" stroke="grey" stroke-width="2" d="M1458.16,-143.7C1462.88,-135.64 1468.59,-125.89 1473.81,-116.98"/>
<polygon fill="grey" stroke="grey" stroke-width="2" points="1476.97,-118.5 1479.01,-108.1 1470.93,-114.96 1476.97,-118.5"/>
</g>
<!-- 47 -->
<g id="node48" class="node">
<title>47</title>
<path fill="none" stroke="#ced856" stroke-width="2" stroke-dasharray="5,2" d="M1394.02,-108C1394.02,-108 1364.02,-108 1364.02,-108 1358.02,-108 1352.02,-102 1352.02,-96 1352.02,-96 1352.02,-84 1352.02,-84 1352.02,-78 1358.02,-72 1364.02,-72 1364.02,-72 1394.02,-72 1394.02,-72 1400.02,-72 1406.02,-78 1406.02,-84 1406.02,-84 1406.02,-96 1406.02,-96 1406.02,-102 1400.02,-108 1394.02,-108"/>
<text text-anchor="middle" x="1379.02" y="-87.5" font-family="sans" font-size="10.00">dea</text>
</g>
<!-- 5&#45;&gt;47 -->
<g id="edge87" class="edge">
<title>5&#45;&gt;47</title>
<path fill="none" stroke="grey" stroke-width="2" d="M1430.97,-143.7C1422.53,-135.14 1412.2,-124.66 1402.98,-115.3"/>
<polygon fill="grey" stroke="grey" stroke-width="2" points="1405.4,-112.77 1395.88,-108.1 1400.41,-117.68 1405.4,-112.77"/>
</g>
<!-- 6 -->
<g id="node7" class="node">
<title>6</title>
<path fill="none" stroke="#569ad8" stroke-width="2" stroke-dasharray="5,2" d="M1465.02,-252C1465.02,-252 1409.02,-252 1409.02,-252 1403.02,-252 1397.02,-246 1397.02,-240 1397.02,-240 1397.02,-228 1397.02,-228 1397.02,-222 1403.02,-216 1409.02,-216 1409.02,-216 1465.02,-216 1465.02,-216 1471.02,-216 1477.02,-222 1477.02,-228 1477.02,-228 1477.02,-240 1477.02,-240 1477.02,-246 1471.02,-252 1465.02,-252"/>
<text text-anchor="middle" x="1437.02" y="-231.5" font-family="sans" font-size="10.00">merge_count</text>
</g>
<!-- 6&#45;&gt;5 -->
<g id="edge11" class="edge">
<title>6&#45;&gt;5</title>
<path fill="none" stroke="grey" stroke-width="2" d="M1439.74,-215.7C1440.96,-207.98 1442.41,-198.71 1443.76,-190.11"/>
<polygon fill="grey" stroke="grey" stroke-width="2" points="1447.24,-190.53 1445.34,-180.1 1440.33,-189.44 1447.24,-190.53"/>
</g>
<!-- 7&#45;&gt;6 -->
<g id="edge13" class="edge">
<title>7&#45;&gt;6</title>
<path fill="none" stroke="grey" stroke-width="2" d="M443.71,-303.42C557.45,-297.84 946.46,-277.94 1267.02,-252 1307.35,-248.74 1352.96,-244.13 1386.78,-240.53"/>
<polygon fill="grey" stroke="grey" stroke-width="2" points="1387.3,-243.99 1396.88,-239.45 1386.56,-237.03 1387.3,-243.99"/>
</g>
<!-- 40 -->
<g id="node41" class="node">
<title>40</title>
<path fill="none" stroke="#567bd8" stroke-width="2" stroke-dasharray="5,2" d="M651.02,-252C651.02,-252 571.02,-252 571.02,-252 565.02,-252 559.02,-246 559.02,-240 559.02,-240 559.02,-228 559.02,-228 559.02,-222 565.02,-216 571.02,-216 571.02,-216 651.02,-216 651.02,-216 657.02,-216 663.02,-222 663.02,-228 663.02,-228 663.02,-240 663.02,-240 663.02,-246 657.02,-252 651.02,-252"/>
<text text-anchor="middle" x="611.02" y="-231.5" font-family="sans" font-size="10.00">samtools_flagstat</text>
</g>
<!-- 7&#45;&gt;40 -->
<g id="edge57" class="edge">
<title>7&#45;&gt;40</title>
<path fill="none" stroke="grey" stroke-width="2" d="M443.6,-293.6C473.04,-283.29 517.08,-267.88 552.6,-255.45"/>
<polygon fill="grey" stroke="grey" stroke-width="2" points="554.09,-258.63 562.38,-252.03 551.78,-252.03 554.09,-258.63"/>
</g>
<!-- 8 -->
<g id="node9" class="node">
<title>8</title>
<path fill="none" stroke="#d8bc56" stroke-width="2" stroke-dasharray="5,2" d="M115.02,-401C115.02,-401 47.02,-401 47.02,-401 41.02,-401 35.02,-395 35.02,-389 35.02,-389 35.02,-372 35.02,-372 35.02,-366 41.02,-360 47.02,-360 47.02,-360 115.02,-360 115.02,-360 121.02,-360 127.02,-366 127.02,-372 127.02,-372 127.02,-389 127.02,-389 127.02,-395 121.02,-401 115.02,-401"/>
<text text-anchor="middle" x="81.02" y="-389" font-family="sans" font-size="10.00">fastp_se</text>
<text text-anchor="middle" x="81.02" y="-378" font-family="sans" font-size="10.00">s: GSM6001955</text>
<text text-anchor="middle" x="81.02" y="-367" font-family="sans" font-size="10.00">u: L1</text>
</g>
<!-- 8&#45;&gt;7 -->
<g id="edge19" class="edge">
<title>8&#45;&gt;7</title>
<path fill="none" stroke="grey" stroke-width="2" d="M127.08,-362.61C130.09,-361.68 133.09,-360.8 136.02,-360 217.12,-337.94 314.08,-321.51 368.51,-313.16"/>
<polygon fill="grey" stroke="grey" stroke-width="2" points="369.12,-316.61 378.49,-311.65 368.08,-309.69 369.12,-316.61"/>
</g>
<!-- 46 -->
<g id="node47" class="node">
<title>46</title>
<path fill="none" stroke="#d89c56" stroke-width="2" stroke-dasharray="5,2" d="M1406.52,-324C1406.52,-324 1347.52,-324 1347.52,-324 1341.52,-324 1335.52,-318 1335.52,-312 1335.52,-312 1335.52,-300 1335.52,-300 1335.52,-294 1341.52,-288 1347.52,-288 1347.52,-288 1406.52,-288 1406.52,-288 1412.52,-288 1418.52,-294 1418.52,-300 1418.52,-300 1418.52,-312 1418.52,-312 1418.52,-318 1412.52,-324 1406.52,-324"/>
<text text-anchor="middle" x="1377.02" y="-303.5" font-family="sans" font-size="10.00">fastp_multiqc</text>
</g>
<!-- 8&#45;&gt;46 -->
<g id="edge63" class="edge">
<title>8&#45;&gt;46</title>
<path fill="none" stroke="grey" stroke-width="2" d="M127.26,-361.98C130.2,-361.22 133.14,-360.54 136.02,-360 378.98,-314.15 1001.61,-344.18 1248.02,-324 1273.52,-321.91 1301.7,-318.35 1325.2,-315.02"/>
<polygon fill="grey" stroke="grey" stroke-width="2" points="1325.91,-318.45 1335.31,-313.56 1324.91,-311.52 1325.91,-318.45"/>
</g>
<!-- 9 -->
<g id="node10" class="node">
<title>9</title>
<path fill="none" stroke="#d8bc56" stroke-width="2" stroke-dasharray="5,2" d="M225.02,-401C225.02,-401 157.02,-401 157.02,-401 151.02,-401 145.02,-395 145.02,-389 145.02,-389 145.02,-372 145.02,-372 145.02,-366 151.02,-360 157.02,-360 157.02,-360 225.02,-360 225.02,-360 231.02,-360 237.02,-366 237.02,-372 237.02,-372 237.02,-389 237.02,-389 237.02,-395 231.02,-401 225.02,-401"/>
<text text-anchor="middle" x="191.02" y="-389" font-family="sans" font-size="10.00">fastp_se</text>
<text text-anchor="middle" x="191.02" y="-378" font-family="sans" font-size="10.00">s: GSM6001955</text>
<text text-anchor="middle" x="191.02" y="-367" font-family="sans" font-size="10.00">u: L2</text>
</g>
<!-- 9&#45;&gt;7 -->
<g id="edge20" class="edge">
<title>9&#45;&gt;7</title>
<path fill="none" stroke="grey" stroke-width="2" d="M237.2,-363.01C240.18,-361.99 243.14,-360.97 246.02,-360 287.49,-345.99 335.1,-330.79 368.49,-320.28"/>
<polygon fill="grey" stroke="grey" stroke-width="2" points="369.88,-323.51 378.37,-317.17 367.78,-316.83 369.88,-323.51"/>
</g>
<!-- 9&#45;&gt;46 -->
<g id="edge64" class="edge">
<title>9&#45;&gt;46</title>
<path fill="none" stroke="grey" stroke-width="2" d="M237.26,-361.99C240.2,-361.23 243.14,-360.55 246.02,-360 464.9,-318.29 1025.99,-342.58 1248.02,-324 1273.52,-321.87 1301.7,-318.29 1325.2,-314.97"/>
<polygon fill="grey" stroke="grey" stroke-width="2" points="1325.9,-318.41 1335.3,-313.52 1324.91,-311.48 1325.9,-318.41"/>
</g>
<!-- 10 -->
<g id="node11" class="node">
<title>10</title>
<path fill="none" stroke="#d8bc56" stroke-width="2" stroke-dasharray="5,2" d="M335.02,-401C335.02,-401 267.02,-401 267.02,-401 261.02,-401 255.02,-395 255.02,-389 255.02,-389 255.02,-372 255.02,-372 255.02,-366 261.02,-360 267.02,-360 267.02,-360 335.02,-360 335.02,-360 341.02,-360 347.02,-366 347.02,-372 347.02,-372 347.02,-389 347.02,-389 347.02,-395 341.02,-401 335.02,-401"/>
<text text-anchor="middle" x="301.02" y="-389" font-family="sans" font-size="10.00">fastp_se</text>
<text text-anchor="middle" x="301.02" y="-378" font-family="sans" font-size="10.00">s: GSM6001955</text>
<text text-anchor="middle" x="301.02" y="-367" font-family="sans" font-size="10.00">u: L3</text>
</g>
<!-- 10&#45;&gt;7 -->
<g id="edge21" class="edge">
<title>10&#45;&gt;7</title>
<path fill="none" stroke="grey" stroke-width="2" d="M330.79,-359.88C344.81,-350.64 361.61,-339.57 376.22,-329.94"/>
<polygon fill="grey" stroke="grey" stroke-width="2" points="378.55,-332.59 384.98,-324.17 374.7,-326.75 378.55,-332.59"/>
</g>
<!-- 10&#45;&gt;46 -->
<g id="edge65" class="edge">
<title>10&#45;&gt;46</title>
<path fill="none" stroke="grey" stroke-width="2" d="M347.26,-362.01C350.2,-361.24 353.14,-360.56 356.02,-360 745.61,-284.86 852.71,-357.95 1248.02,-324 1273.51,-321.81 1301.69,-318.23 1325.2,-314.92"/>
<polygon fill="grey" stroke="grey" stroke-width="2" points="1325.9,-318.36 1335.3,-313.47 1324.9,-311.43 1325.9,-318.36"/>
</g>
<!-- 11 -->
<g id="node12" class="node">
<title>11</title>
<path fill="none" stroke="#d8bc56" stroke-width="2" stroke-dasharray="5,2" d="M445.02,-401C445.02,-401 377.02,-401 377.02,-401 371.02,-401 365.02,-395 365.02,-389 365.02,-389 365.02,-372 365.02,-372 365.02,-366 371.02,-360 377.02,-360 377.02,-360 445.02,-360 445.02,-360 451.02,-360 457.02,-366 457.02,-372 457.02,-372 457.02,-389 457.02,-389 457.02,-395 451.02,-401 445.02,-401"/>
<text text-anchor="middle" x="411.02" y="-389" font-family="sans" font-size="10.00">fastp_se</text>
<text text-anchor="middle" x="411.02" y="-378" font-family="sans" font-size="10.00">s: GSM6001955</text>
<text text-anchor="middle" x="411.02" y="-367" font-family="sans" font-size="10.00">u: L4</text>
</g>
<!-- 11&#45;&gt;7 -->
<g id="edge22" class="edge">
<title>11&#45;&gt;7</title>
<path fill="none" stroke="grey" stroke-width="2" d="M411.02,-359.69C411.02,-351.91 411.02,-342.84 411.02,-334.45"/>
<polygon fill="grey" stroke="grey" stroke-width="2" points="414.52,-334.32 411.02,-324.32 407.52,-334.32 414.52,-334.32"/>
</g>
<!-- 11&#45;&gt;46 -->
<g id="edge66" class="edge">
<title>11&#45;&gt;46</title>
<path fill="none" stroke="grey" stroke-width="2" d="M457.27,-362.03C460.2,-361.25 463.14,-360.56 466.02,-360 807.46,-293.14 901.46,-354.76 1248.02,-324 1273.5,-321.74 1301.68,-318.15 1325.19,-314.85"/>
<polygon fill="grey" stroke="grey" stroke-width="2" points="1325.89,-318.29 1335.29,-313.41 1324.9,-311.36 1325.89,-318.29"/>
</g>
<!-- 12&#45;&gt;6 -->
<g id="edge14" class="edge">
<title>12&#45;&gt;6</title>
<path fill="none" stroke="grey" stroke-width="2" d="M883.79,-301.09C981.23,-289.45 1269.75,-254.98 1386.82,-241"/>
<polygon fill="grey" stroke="grey" stroke-width="2" points="1387.42,-244.45 1396.94,-239.79 1386.59,-237.5 1387.42,-244.45"/>
</g>
<!-- 41 -->
<g id="node42" class="node">
<title>41</title>
<path fill="none" stroke="#567bd8" stroke-width="2" stroke-dasharray="5,2" d="M932.02,-252C932.02,-252 852.02,-252 852.02,-252 846.02,-252 840.02,-246 840.02,-240 840.02,-240 840.02,-228 840.02,-228 840.02,-222 846.02,-216 852.02,-216 852.02,-216 932.02,-216 932.02,-216 938.02,-216 944.02,-222 944.02,-228 944.02,-228 944.02,-240 944.02,-240 944.02,-246 938.02,-252 932.02,-252"/>
<text text-anchor="middle" x="892.02" y="-231.5" font-family="sans" font-size="10.00">samtools_flagstat</text>
</g>
<!-- 12&#45;&gt;41 -->
<g id="edge58" class="edge">
<title>12&#45;&gt;41</title>
<path fill="none" stroke="grey" stroke-width="2" d="M861.16,-287.7C865.88,-279.64 871.59,-269.89 876.81,-260.98"/>
<polygon fill="grey" stroke="grey" stroke-width="2" points="879.97,-262.5 882.01,-252.1 873.93,-258.96 879.97,-262.5"/>
</g>
<!-- 13 -->
<g id="node14" class="node">
<title>13</title>
<path fill="none" stroke="#d8bc56" stroke-width="2" stroke-dasharray="5,2" d="M555.02,-401C555.02,-401 487.02,-401 487.02,-401 481.02,-401 475.02,-395 475.02,-389 475.02,-389 475.02,-372 475.02,-372 475.02,-366 481.02,-360 487.02,-360 487.02,-360 555.02,-360 555.02,-360 561.02,-360 567.02,-366 567.02,-372 567.02,-372 567.02,-389 567.02,-389 567.02,-395 561.02,-401 555.02,-401"/>
<text text-anchor="middle" x="521.02" y="-389" font-family="sans" font-size="10.00">fastp_se</text>
<text text-anchor="middle" x="521.02" y="-378" font-family="sans" font-size="10.00">s: GSM6001954</text>
<text text-anchor="middle" x="521.02" y="-367" font-family="sans" font-size="10.00">u: L1</text>
</g>
<!-- 13&#45;&gt;12 -->
<g id="edge24" class="edge">
<title>13&#45;&gt;12</title>
<path fill="none" stroke="grey" stroke-width="2" d="M567.08,-362.61C570.09,-361.68 573.09,-360.8 576.02,-360 657.12,-337.94 754.08,-321.51 808.51,-313.16"/>
<polygon fill="grey" stroke="grey" stroke-width="2" points="809.12,-316.61 818.49,-311.65 808.08,-309.69 809.12,-316.61"/>
</g>
<!-- 13&#45;&gt;46 -->
<g id="edge67" class="edge">
<title>13&#45;&gt;46</title>
<path fill="none" stroke="grey" stroke-width="2" d="M567.27,-362.05C570.21,-361.27 573.14,-360.58 576.02,-360 869.33,-301.42 950.2,-351.56 1248.02,-324 1273.5,-321.64 1301.67,-318.04 1325.18,-314.76"/>
<polygon fill="grey" stroke="grey" stroke-width="2" points="1325.88,-318.2 1335.29,-313.33 1324.89,-311.27 1325.88,-318.2"/>
</g>
<!-- 14 -->
<g id="node15" class="node">
<title>14</title>
<path fill="none" stroke="#d8bc56" stroke-width="2" stroke-dasharray="5,2" d="M665.02,-401C665.02,-401 597.02,-401 597.02,-401 591.02,-401 585.02,-395 585.02,-389 585.02,-389 585.02,-372 585.02,-372 585.02,-366 591.02,-360 597.02,-360 597.02,-360 665.02,-360 665.02,-360 671.02,-360 677.02,-366 677.02,-372 677.02,-372 677.02,-389 677.02,-389 677.02,-395 671.02,-401 665.02,-401"/>
<text text-anchor="middle" x="631.02" y="-389" font-family="sans" font-size="10.00">fastp_se</text>
<text text-anchor="middle" x="631.02" y="-378" font-family="sans" font-size="10.00">s: GSM6001954</text>
<text text-anchor="middle" x="631.02" y="-367" font-family="sans" font-size="10.00">u: L2</text>
</g>
<!-- 14&#45;&gt;12 -->
<g id="edge25" class="edge">
<title>14&#45;&gt;12</title>
<path fill="none" stroke="grey" stroke-width="2" d="M677.2,-363.01C680.18,-361.99 683.14,-360.97 686.02,-360 727.49,-345.99 775.1,-330.79 808.49,-320.28"/>
<polygon fill="grey" stroke="grey" stroke-width="2" points="809.88,-323.51 818.37,-317.17 807.78,-316.83 809.88,-323.51"/>
</g>
<!-- 14&#45;&gt;46 -->
<g id="edge68" class="edge">
<title>14&#45;&gt;46</title>
<path fill="none" stroke="grey" stroke-width="2" d="M677.28,-362.09C680.21,-361.3 683.15,-360.59 686.02,-360 931.21,-309.7 998.92,-348.36 1248.02,-324 1273.48,-321.51 1301.66,-317.9 1325.17,-314.64"/>
<polygon fill="grey" stroke="grey" stroke-width="2" points="1325.86,-318.08 1335.28,-313.22 1324.89,-311.15 1325.86,-318.08"/>
</g>
<!-- 15 -->
<g id="node16" class="node">
<title>15</title>
<path fill="none" stroke="#d8bc56" stroke-width="2" stroke-dasharray="5,2" d="M775.02,-401C775.02,-401 707.02,-401 707.02,-401 701.02,-401 695.02,-395 695.02,-389 695.02,-389 695.02,-372 695.02,-372 695.02,-366 701.02,-360 707.02,-360 707.02,-360 775.02,-360 775.02,-360 781.02,-360 787.02,-366 787.02,-372 787.02,-372 787.02,-389 787.02,-389 787.02,-395 781.02,-401 775.02,-401"/>
<text text-anchor="middle" x="741.02" y="-389" font-family="sans" font-size="10.00">fastp_se</text>
<text text-anchor="middle" x="741.02" y="-378" font-family="sans" font-size="10.00">s: GSM6001954</text>
<text text-anchor="middle" x="741.02" y="-367" font-family="sans" font-size="10.00">u: L3</text>
</g>
<!-- 15&#45;&gt;12 -->
<g id="edge26" class="edge">
<title>15&#45;&gt;12</title>
<path fill="none" stroke="grey" stroke-width="2" d="M770.79,-359.88C784.81,-350.64 801.61,-339.57 816.22,-329.94"/>
<polygon fill="grey" stroke="grey" stroke-width="2" points="818.55,-332.59 824.98,-324.17 814.7,-326.75 818.55,-332.59"/>
</g>
<!-- 15&#45;&gt;46 -->
<g id="edge69" class="edge">
<title>15&#45;&gt;46</title>
<path fill="none" stroke="grey" stroke-width="2" d="M787.29,-362.14C790.22,-361.34 793.15,-360.61 796.02,-360 993.12,-317.97 1047.61,-345.17 1248.02,-324 1273.46,-321.31 1301.64,-317.68 1325.15,-314.46"/>
<polygon fill="grey" stroke="grey" stroke-width="2" points="1325.83,-317.9 1335.26,-313.06 1324.87,-310.96 1325.83,-317.9"/>
</g>
<!-- 16 -->
<g id="node17" class="node">
<title>16</title>
<path fill="none" stroke="#d8bc56" stroke-width="2" stroke-dasharray="5,2" d="M885.02,-401C885.02,-401 817.02,-401 817.02,-401 811.02,-401 805.02,-395 805.02,-389 805.02,-389 805.02,-372 805.02,-372 805.02,-366 811.02,-360 817.02,-360 817.02,-360 885.02,-360 885.02,-360 891.02,-360 897.02,-366 897.02,-372 897.02,-372 897.02,-389 897.02,-389 897.02,-395 891.02,-401 885.02,-401"/>
<text text-anchor="middle" x="851.02" y="-389" font-family="sans" font-size="10.00">fastp_se</text>
<text text-anchor="middle" x="851.02" y="-378" font-family="sans" font-size="10.00">s: GSM6001954</text>
<text text-anchor="middle" x="851.02" y="-367" font-family="sans" font-size="10.00">u: L4</text>
</g>
<!-- 16&#45;&gt;12 -->
<g id="edge27" class="edge">
<title>16&#45;&gt;12</title>
<path fill="none" stroke="grey" stroke-width="2" d="M851.02,-359.69C851.02,-351.91 851.02,-342.84 851.02,-334.45"/>
<polygon fill="grey" stroke="grey" stroke-width="2" points="854.52,-334.32 851.02,-324.32 847.52,-334.32 854.52,-334.32"/>
</g>
<!-- 16&#45;&gt;46 -->
<g id="edge70" class="edge">
<title>16&#45;&gt;46</title>
<path fill="none" stroke="grey" stroke-width="2" d="M897.31,-362.23C900.24,-361.4 903.16,-360.65 906.02,-360 1055.09,-326.23 1096.25,-341.99 1248.02,-324 1273.52,-320.98 1301.81,-317.29 1325.39,-314.12"/>
<polygon fill="grey" stroke="grey" stroke-width="2" points="1326.08,-317.56 1335.52,-312.75 1325.14,-310.62 1326.08,-317.56"/>
</g>
<!-- 17&#45;&gt;6 -->
<g id="edge15" class="edge">
<title>17&#45;&gt;6</title>
<path fill="none" stroke="grey" stroke-width="2" d="M1238.63,-295.12C1277.25,-283.42 1342,-263.8 1386.98,-250.17"/>
<polygon fill="grey" stroke="grey" stroke-width="2" points="1388.27,-253.43 1396.82,-247.18 1386.24,-246.73 1388.27,-253.43"/>
</g>
<!-- 42 -->
<g id="node43" class="node">
<title>42</title>
<path fill="none" stroke="#567bd8" stroke-width="2" stroke-dasharray="5,2" d="M1246.02,-252C1246.02,-252 1166.02,-252 1166.02,-252 1160.02,-252 1154.02,-246 1154.02,-240 1154.02,-240 1154.02,-228 1154.02,-228 1154.02,-222 1160.02,-216 1166.02,-216 1166.02,-216 1246.02,-216 1246.02,-216 1252.02,-216 1258.02,-222 1258.02,-228 1258.02,-228 1258.02,-240 1258.02,-240 1258.02,-246 1252.02,-252 1246.02,-252"/>
<text text-anchor="middle" x="1206.02" y="-231.5" font-family="sans" font-size="10.00">samtools_flagstat</text>
</g>
<!-- 17&#45;&gt;42 -->
<g id="edge59" class="edge">
<title>17&#45;&gt;42</title>
<path fill="none" stroke="grey" stroke-width="2" d="M1206.02,-287.7C1206.02,-279.98 1206.02,-270.71 1206.02,-262.11"/>
<polygon fill="grey" stroke="grey" stroke-width="2" points="1209.52,-262.1 1206.02,-252.1 1202.52,-262.1 1209.52,-262.1"/>
</g>
<!-- 18 -->
<g id="node19" class="node">
<title>18</title>
<path fill="none" stroke="#d8bc56" stroke-width="2" stroke-dasharray="5,2" d="M1081.02,-401C1081.02,-401 1013.02,-401 1013.02,-401 1007.02,-401 1001.02,-395 1001.02,-389 1001.02,-389 1001.02,-372 1001.02,-372 1001.02,-366 1007.02,-360 1013.02,-360 1013.02,-360 1081.02,-360 1081.02,-360 1087.02,-360 1093.02,-366 1093.02,-372 1093.02,-372 1093.02,-389 1093.02,-389 1093.02,-395 1087.02,-401 1081.02,-401"/>
<text text-anchor="middle" x="1047.02" y="-389" font-family="sans" font-size="10.00">fastp_se</text>
<text text-anchor="middle" x="1047.02" y="-378" font-family="sans" font-size="10.00">s: GSM6001953</text>
<text text-anchor="middle" x="1047.02" y="-367" font-family="sans" font-size="10.00">u: L1</text>
</g>
<!-- 18&#45;&gt;17 -->
<g id="edge29" class="edge">
<title>18&#45;&gt;17</title>
<path fill="none" stroke="grey" stroke-width="2" d="M1090.05,-359.88C1113.09,-349.38 1141.34,-336.49 1164.2,-326.07"/>
<polygon fill="grey" stroke="grey" stroke-width="2" points="1165.66,-329.25 1173.31,-321.92 1162.75,-322.88 1165.66,-329.25"/>
</g>
<!-- 18&#45;&gt;46 -->
<g id="edge71" class="edge">
<title>18&#45;&gt;46</title>
<path fill="none" stroke="grey" stroke-width="2" d="M1093.08,-362.61C1096.09,-361.68 1099.09,-360.8 1102.02,-360 1178.66,-339.16 1269.45,-323.34 1325.13,-314.61"/>
<polygon fill="grey" stroke="grey" stroke-width="2" points="1325.77,-318.06 1335.11,-313.07 1324.7,-311.14 1325.77,-318.06"/>
</g>
<!-- 19 -->
<g id="node20" class="node">
<title>19</title>
<path fill="none" stroke="#d8bc56" stroke-width="2" stroke-dasharray="5,2" d="M1191.02,-401C1191.02,-401 1123.02,-401 1123.02,-401 1117.02,-401 1111.02,-395 1111.02,-389 1111.02,-389 1111.02,-372 1111.02,-372 1111.02,-366 1117.02,-360 1123.02,-360 1123.02,-360 1191.02,-360 1191.02,-360 1197.02,-360 1203.02,-366 1203.02,-372 1203.02,-372 1203.02,-389 1203.02,-389 1203.02,-395 1197.02,-401 1191.02,-401"/>
<text text-anchor="middle" x="1157.02" y="-389" font-family="sans" font-size="10.00">fastp_se</text>
<text text-anchor="middle" x="1157.02" y="-378" font-family="sans" font-size="10.00">s: GSM6001953</text>
<text text-anchor="middle" x="1157.02" y="-367" font-family="sans" font-size="10.00">u: L2</text>
</g>
<!-- 19&#45;&gt;17 -->
<g id="edge30" class="edge">
<title>19&#45;&gt;17</title>
<path fill="none" stroke="grey" stroke-width="2" d="M1170.41,-359.69C1176.02,-351.39 1182.62,-341.63 1188.6,-332.78"/>
<polygon fill="grey" stroke="grey" stroke-width="2" points="1191.62,-334.56 1194.32,-324.32 1185.82,-330.64 1191.62,-334.56"/>
</g>
<!-- 19&#45;&gt;46 -->
<g id="edge72" class="edge">
<title>19&#45;&gt;46</title>
<path fill="none" stroke="grey" stroke-width="2" d="M1203.2,-363.01C1206.18,-361.99 1209.14,-360.97 1212.02,-360 1249.87,-347.22 1292.84,-333.44 1325.44,-323.13"/>
<polygon fill="grey" stroke="grey" stroke-width="2" points="1326.72,-326.4 1335.21,-320.05 1324.62,-319.72 1326.72,-326.4"/>
</g>
<!-- 20 -->
<g id="node21" class="node">
<title>20</title>
<path fill="none" stroke="#d8bc56" stroke-width="2" stroke-dasharray="5,2" d="M1301.02,-401C1301.02,-401 1233.02,-401 1233.02,-401 1227.02,-401 1221.02,-395 1221.02,-389 1221.02,-389 1221.02,-372 1221.02,-372 1221.02,-366 1227.02,-360 1233.02,-360 1233.02,-360 1301.02,-360 1301.02,-360 1307.02,-360 1313.02,-366 1313.02,-372 1313.02,-372 1313.02,-389 1313.02,-389 1313.02,-395 1307.02,-401 1301.02,-401"/>
<text text-anchor="middle" x="1267.02" y="-389" font-family="sans" font-size="10.00">fastp_se</text>
<text text-anchor="middle" x="1267.02" y="-378" font-family="sans" font-size="10.00">s: GSM6001953</text>
<text text-anchor="middle" x="1267.02" y="-367" font-family="sans" font-size="10.00">u: L3</text>
</g>
<!-- 20&#45;&gt;17 -->
<g id="edge31" class="edge">
<title>20&#45;&gt;17</title>
<path fill="none" stroke="grey" stroke-width="2" d="M1250.36,-359.69C1243.23,-351.21 1234.82,-341.22 1227.25,-332.23"/>
<polygon fill="grey" stroke="grey" stroke-width="2" points="1229.71,-329.72 1220.6,-324.32 1224.36,-334.22 1229.71,-329.72"/>
</g>
<!-- 20&#45;&gt;46 -->
<g id="edge73" class="edge">
<title>20&#45;&gt;46</title>
<path fill="none" stroke="grey" stroke-width="2" d="M1296.79,-359.88C1310.81,-350.64 1327.61,-339.57 1342.22,-329.94"/>
<polygon fill="grey" stroke="grey" stroke-width="2" points="1344.55,-332.59 1350.98,-324.17 1340.7,-326.75 1344.55,-332.59"/>
</g>
<!-- 21 -->
<g id="node22" class="node">
<title>21</title>
<path fill="none" stroke="#d8bc56" stroke-width="2" stroke-dasharray="5,2" d="M1411.02,-401C1411.02,-401 1343.02,-401 1343.02,-401 1337.02,-401 1331.02,-395 1331.02,-389 1331.02,-389 1331.02,-372 1331.02,-372 1331.02,-366 1337.02,-360 1343.02,-360 1343.02,-360 1411.02,-360 1411.02,-360 1417.02,-360 1423.02,-366 1423.02,-372 1423.02,-372 1423.02,-389 1423.02,-389 1423.02,-395 1417.02,-401 1411.02,-401"/>
<text text-anchor="middle" x="1377.02" y="-389" font-family="sans" font-size="10.00">fastp_se</text>
<text text-anchor="middle" x="1377.02" y="-378" font-family="sans" font-size="10.00">s: GSM6001953</text>
<text text-anchor="middle" x="1377.02" y="-367" font-family="sans" font-size="10.00">u: L4</text>
</g>
<!-- 21&#45;&gt;17 -->
<g id="edge32" class="edge">
<title>21&#45;&gt;17</title>
<path fill="none" stroke="grey" stroke-width="2" d="M1330.75,-359.88C1304.96,-348.95 1273.1,-335.44 1248.03,-324.81"/>
<polygon fill="grey" stroke="grey" stroke-width="2" points="1249.36,-321.57 1238.79,-320.89 1246.63,-328.02 1249.36,-321.57"/>
</g>
<!-- 21&#45;&gt;46 -->
<g id="edge74" class="edge">
<title>21&#45;&gt;46</title>
<path fill="none" stroke="grey" stroke-width="2" d="M1377.02,-359.69C1377.02,-351.91 1377.02,-342.84 1377.02,-334.45"/>
<polygon fill="grey" stroke="grey" stroke-width="2" points="1380.52,-334.32 1377.02,-324.32 1373.52,-334.32 1380.52,-334.32"/>
</g>
<!-- 22&#45;&gt;6 -->
<g id="edge16" class="edge">
<title>22&#45;&gt;6</title>
<path fill="none" stroke="grey" stroke-width="2" d="M1520.11,-287.88C1505.87,-278.81 1488.18,-267.55 1472.79,-257.76"/>
<polygon fill="grey" stroke="grey" stroke-width="2" points="1474.35,-254.61 1464.04,-252.19 1470.59,-260.51 1474.35,-254.61"/>
</g>
<!-- 43 -->
<g id="node44" class="node">
<title>43</title>
<path fill="none" stroke="#567bd8" stroke-width="2" stroke-dasharray="5,2" d="M1587.02,-252C1587.02,-252 1507.02,-252 1507.02,-252 1501.02,-252 1495.02,-246 1495.02,-240 1495.02,-240 1495.02,-228 1495.02,-228 1495.02,-222 1501.02,-216 1507.02,-216 1507.02,-216 1587.02,-216 1587.02,-216 1593.02,-216 1599.02,-222 1599.02,-228 1599.02,-228 1599.02,-240 1599.02,-240 1599.02,-246 1593.02,-252 1587.02,-252"/>
<text text-anchor="middle" x="1547.02" y="-231.5" font-family="sans" font-size="10.00">samtools_flagstat</text>
</g>
<!-- 22&#45;&gt;43 -->
<g id="edge60" class="edge">
<title>22&#45;&gt;43</title>
<path fill="none" stroke="grey" stroke-width="2" d="M1547.02,-287.7C1547.02,-279.98 1547.02,-270.71 1547.02,-262.11"/>
<polygon fill="grey" stroke="grey" stroke-width="2" points="1550.52,-262.1 1547.02,-252.1 1543.52,-262.1 1550.52,-262.1"/>
</g>
<!-- 23 -->
<g id="node24" class="node">
<title>23</title>
<path fill="none" stroke="#d8bc56" stroke-width="2" stroke-dasharray="5,2" d="M1521.02,-401C1521.02,-401 1453.02,-401 1453.02,-401 1447.02,-401 1441.02,-395 1441.02,-389 1441.02,-389 1441.02,-372 1441.02,-372 1441.02,-366 1447.02,-360 1453.02,-360 1453.02,-360 1521.02,-360 1521.02,-360 1527.02,-360 1533.02,-366 1533.02,-372 1533.02,-372 1533.02,-389 1533.02,-389 1533.02,-395 1527.02,-401 1521.02,-401"/>
<text text-anchor="middle" x="1487.02" y="-389" font-family="sans" font-size="10.00">fastp_se</text>
<text text-anchor="middle" x="1487.02" y="-378" font-family="sans" font-size="10.00">s: GSM6001952</text>
<text text-anchor="middle" x="1487.02" y="-367" font-family="sans" font-size="10.00">u: L1</text>
</g>
<!-- 23&#45;&gt;22 -->
<g id="edge34" class="edge">
<title>23&#45;&gt;22</title>
<path fill="none" stroke="grey" stroke-width="2" d="M1503.42,-359.69C1510.43,-351.21 1518.7,-341.22 1526.15,-332.23"/>
<polygon fill="grey" stroke="grey" stroke-width="2" points="1529.01,-334.25 1532.69,-324.32 1523.62,-329.79 1529.01,-334.25"/>
</g>
<!-- 23&#45;&gt;46 -->
<g id="edge75" class="edge">
<title>23&#45;&gt;46</title>
<path fill="none" stroke="grey" stroke-width="2" d="M1457.26,-359.88C1443.24,-350.64 1426.43,-339.57 1411.83,-329.94"/>
<polygon fill="grey" stroke="grey" stroke-width="2" points="1413.35,-326.75 1403.07,-324.17 1409.49,-332.59 1413.35,-326.75"/>
</g>
<!-- 24 -->
<g id="node25" class="node">
<title>24</title>
<path fill="none" stroke="#d8bc56" stroke-width="2" stroke-dasharray="5,2" d="M1631.02,-401C1631.02,-401 1563.02,-401 1563.02,-401 1557.02,-401 1551.02,-395 1551.02,-389 1551.02,-389 1551.02,-372 1551.02,-372 1551.02,-366 1557.02,-360 1563.02,-360 1563.02,-360 1631.02,-360 1631.02,-360 1637.02,-360 1643.02,-366 1643.02,-372 1643.02,-372 1643.02,-389 1643.02,-389 1643.02,-395 1637.02,-401 1631.02,-401"/>
<text text-anchor="middle" x="1597.02" y="-389" font-family="sans" font-size="10.00">fastp_se</text>
<text text-anchor="middle" x="1597.02" y="-378" font-family="sans" font-size="10.00">s: GSM6001952</text>
<text text-anchor="middle" x="1597.02" y="-367" font-family="sans" font-size="10.00">u: L2</text>
</g>
<!-- 24&#45;&gt;22 -->
<g id="edge35" class="edge">
<title>24&#45;&gt;22</title>
<path fill="none" stroke="grey" stroke-width="2" d="M1583.36,-359.69C1577.64,-351.39 1570.9,-341.63 1564.8,-332.78"/>
<polygon fill="grey" stroke="grey" stroke-width="2" points="1567.53,-330.56 1558.97,-324.32 1561.76,-334.54 1567.53,-330.56"/>
</g>
<!-- 24&#45;&gt;46 -->
<g id="edge76" class="edge">
<title>24&#45;&gt;46</title>
<path fill="none" stroke="grey" stroke-width="2" d="M1550.85,-363.01C1547.86,-361.99 1544.9,-360.97 1542.02,-360 1504.18,-347.22 1461.21,-333.44 1428.61,-323.13"/>
<polygon fill="grey" stroke="grey" stroke-width="2" points="1429.43,-319.72 1418.84,-320.05 1427.33,-326.4 1429.43,-319.72"/>
</g>
<!-- 25 -->
<g id="node26" class="node">
<title>25</title>
<path fill="none" stroke="#d8bc56" stroke-width="2" stroke-dasharray="5,2" d="M1741.02,-401C1741.02,-401 1673.02,-401 1673.02,-401 1667.02,-401 1661.02,-395 1661.02,-389 1661.02,-389 1661.02,-372 1661.02,-372 1661.02,-366 1667.02,-360 1673.02,-360 1673.02,-360 1741.02,-360 1741.02,-360 1747.02,-360 1753.02,-366 1753.02,-372 1753.02,-372 1753.02,-389 1753.02,-389 1753.02,-395 1747.02,-401 1741.02,-401"/>
<text text-anchor="middle" x="1707.02" y="-389" font-family="sans" font-size="10.00">fastp_se</text>
<text text-anchor="middle" x="1707.02" y="-378" font-family="sans" font-size="10.00">s: GSM6001952</text>
<text text-anchor="middle" x="1707.02" y="-367" font-family="sans" font-size="10.00">u: L3</text>
</g>
<!-- 25&#45;&gt;22 -->
<g id="edge36" class="edge">
<title>25&#45;&gt;22</title>
<path fill="none" stroke="grey" stroke-width="2" d="M1663.73,-359.88C1640.46,-349.34 1611.91,-336.4 1588.87,-325.96"/>
<polygon fill="grey" stroke="grey" stroke-width="2" points="1590.25,-322.74 1579.69,-321.8 1587.36,-329.12 1590.25,-322.74"/>
</g>
<!-- 25&#45;&gt;46 -->
<g id="edge77" class="edge">
<title>25&#45;&gt;46</title>
<path fill="none" stroke="grey" stroke-width="2" d="M1660.97,-362.61C1657.96,-361.68 1654.96,-360.8 1652.02,-360 1575.39,-339.16 1484.6,-323.34 1428.91,-314.61"/>
<polygon fill="grey" stroke="grey" stroke-width="2" points="1429.35,-311.14 1418.93,-313.07 1428.28,-318.06 1429.35,-311.14"/>
</g>
<!-- 26 -->
<g id="node27" class="node">
<title>26</title>
<path fill="none" stroke="#d8bc56" stroke-width="2" stroke-dasharray="5,2" d="M1851.02,-401C1851.02,-401 1783.02,-401 1783.02,-401 1777.02,-401 1771.02,-395 1771.02,-389 1771.02,-389 1771.02,-372 1771.02,-372 1771.02,-366 1777.02,-360 1783.02,-360 1783.02,-360 1851.02,-360 1851.02,-360 1857.02,-360 1863.02,-366 1863.02,-372 1863.02,-372 1863.02,-389 1863.02,-389 1863.02,-395 1857.02,-401 1851.02,-401"/>
<text text-anchor="middle" x="1817.02" y="-389" font-family="sans" font-size="10.00">fastp_se</text>
<text text-anchor="middle" x="1817.02" y="-378" font-family="sans" font-size="10.00">s: GSM6001952</text>
<text text-anchor="middle" x="1817.02" y="-367" font-family="sans" font-size="10.00">u: L4</text>
</g>
<!-- 26&#45;&gt;22 -->
<g id="edge37" class="edge">
<title>26&#45;&gt;22</title>
<path fill="none" stroke="grey" stroke-width="2" d="M1770.92,-362.78C1767.92,-361.81 1764.94,-360.87 1762.02,-360 1702.87,-342.27 1633.31,-325.93 1589.69,-316.21"/>
<polygon fill="grey" stroke="grey" stroke-width="2" points="1590.23,-312.74 1579.71,-314 1588.72,-319.58 1590.23,-312.74"/>
</g>
<!-- 26&#45;&gt;46 -->
<g id="edge78" class="edge">
<title>26&#45;&gt;46</title>
<path fill="none" stroke="grey" stroke-width="2" d="M1771.02,-362.42C1767.99,-361.54 1764.98,-360.72 1762.02,-360 1746,-356.1 1529.85,-327.24 1428.63,-313.82"/>
<polygon fill="grey" stroke="grey" stroke-width="2" points="1428.99,-310.34 1418.62,-312.49 1428.08,-317.28 1428.99,-310.34"/>
</g>
<!-- 27&#45;&gt;6 -->
<g id="edge17" class="edge">
<title>27&#45;&gt;6</title>
<path fill="none" stroke="grey" stroke-width="2" d="M1894.52,-303.48C1822.44,-299.6 1643.83,-287.2 1487.02,-251.95"/>
<polygon fill="grey" stroke="grey" stroke-width="2" points="1487.73,-248.52 1477.2,-249.7 1486.17,-255.34 1487.73,-248.52"/>
</g>
<!-- 44 -->
<g id="node45" class="node">
<title>44</title>
<path fill="none" stroke="#567bd8" stroke-width="2" stroke-dasharray="5,2" d="M1819.02,-252C1819.02,-252 1739.02,-252 1739.02,-252 1733.02,-252 1727.02,-246 1727.02,-240 1727.02,-240 1727.02,-228 1727.02,-228 1727.02,-222 1733.02,-216 1739.02,-216 1739.02,-216 1819.02,-216 1819.02,-216 1825.02,-216 1831.02,-222 1831.02,-228 1831.02,-228 1831.02,-240 1831.02,-240 1831.02,-246 1825.02,-252 1819.02,-252"/>
<text text-anchor="middle" x="1779.02" y="-231.5" font-family="sans" font-size="10.00">samtools_flagstat</text>
</g>
<!-- 27&#45;&gt;44 -->
<g id="edge61" class="edge">
<title>27&#45;&gt;44</title>
<path fill="none" stroke="grey" stroke-width="2" d="M1894.18,-289.46C1873.59,-279.73 1846.78,-267.05 1824.21,-256.37"/>
<polygon fill="grey" stroke="grey" stroke-width="2" points="1825.69,-253.2 1815.15,-252.09 1822.69,-259.53 1825.69,-253.2"/>
</g>
<!-- 28 -->
<g id="node29" class="node">
<title>28</title>
<path fill="none" stroke="#d8bc56" stroke-width="2" stroke-dasharray="5,2" d="M1961.02,-401C1961.02,-401 1893.02,-401 1893.02,-401 1887.02,-401 1881.02,-395 1881.02,-389 1881.02,-389 1881.02,-372 1881.02,-372 1881.02,-366 1887.02,-360 1893.02,-360 1893.02,-360 1961.02,-360 1961.02,-360 1967.02,-360 1973.02,-366 1973.02,-372 1973.02,-372 1973.02,-389 1973.02,-389 1973.02,-395 1967.02,-401 1961.02,-401"/>
<text text-anchor="middle" x="1927.02" y="-389" font-family="sans" font-size="10.00">fastp_se</text>
<text text-anchor="middle" x="1927.02" y="-378" font-family="sans" font-size="10.00">s: GSM6001951</text>
<text text-anchor="middle" x="1927.02" y="-367" font-family="sans" font-size="10.00">u: L1</text>
</g>
<!-- 28&#45;&gt;27 -->
<g id="edge39" class="edge">
<title>28&#45;&gt;27</title>
<path fill="none" stroke="grey" stroke-width="2" d="M1927.02,-359.69C1927.02,-351.91 1927.02,-342.84 1927.02,-334.45"/>
<polygon fill="grey" stroke="grey" stroke-width="2" points="1930.52,-334.32 1927.02,-324.32 1923.52,-334.32 1930.52,-334.32"/>
</g>
<!-- 28&#45;&gt;46 -->
<g id="edge79" class="edge">
<title>28&#45;&gt;46</title>
<path fill="none" stroke="grey" stroke-width="2" d="M1880.75,-362.2C1877.82,-361.38 1874.89,-360.64 1872.02,-360 1712.49,-324.43 1668.4,-342.68 1506.02,-324 1480.61,-321.08 1452.44,-317.41 1428.92,-314.24"/>
<polygon fill="grey" stroke="grey" stroke-width="2" points="1429.19,-310.74 1418.81,-312.86 1428.25,-317.68 1429.19,-310.74"/>
</g>
<!-- 29 -->
<g id="node30" class="node">
<title>29</title>
<path fill="none" stroke="#d8bc56" stroke-width="2" stroke-dasharray="5,2" d="M2071.02,-401C2071.02,-401 2003.02,-401 2003.02,-401 1997.02,-401 1991.02,-395 1991.02,-389 1991.02,-389 1991.02,-372 1991.02,-372 1991.02,-366 1997.02,-360 2003.02,-360 2003.02,-360 2071.02,-360 2071.02,-360 2077.02,-360 2083.02,-366 2083.02,-372 2083.02,-372 2083.02,-389 2083.02,-389 2083.02,-395 2077.02,-401 2071.02,-401"/>
<text text-anchor="middle" x="2037.02" y="-389" font-family="sans" font-size="10.00">fastp_se</text>
<text text-anchor="middle" x="2037.02" y="-378" font-family="sans" font-size="10.00">s: GSM6001951</text>
<text text-anchor="middle" x="2037.02" y="-367" font-family="sans" font-size="10.00">u: L2</text>
</g>
<!-- 29&#45;&gt;27 -->
<g id="edge40" class="edge">
<title>29&#45;&gt;27</title>
<path fill="none" stroke="grey" stroke-width="2" d="M2007.26,-359.88C1993.24,-350.64 1976.43,-339.57 1961.83,-329.94"/>
<polygon fill="grey" stroke="grey" stroke-width="2" points="1963.35,-326.75 1953.07,-324.17 1959.49,-332.59 1963.35,-326.75"/>
</g>
<!-- 29&#45;&gt;46 -->
<g id="edge80" class="edge">
<title>29&#45;&gt;46</title>
<path fill="none" stroke="grey" stroke-width="2" d="M1990.76,-362.13C1987.83,-361.33 1984.9,-360.61 1982.02,-360 1774.44,-316.17 1717.05,-345.87 1506.02,-324 1480.58,-321.36 1452.4,-317.73 1428.89,-314.5"/>
<polygon fill="grey" stroke="grey" stroke-width="2" points="1429.17,-311.01 1418.78,-313.1 1428.21,-317.94 1429.17,-311.01"/>
</g>
<!-- 30 -->
<g id="node31" class="node">
<title>30</title>
<path fill="none" stroke="#d8bc56" stroke-width="2" stroke-dasharray="5,2" d="M2181.02,-401C2181.02,-401 2113.02,-401 2113.02,-401 2107.02,-401 2101.02,-395 2101.02,-389 2101.02,-389 2101.02,-372 2101.02,-372 2101.02,-366 2107.02,-360 2113.02,-360 2113.02,-360 2181.02,-360 2181.02,-360 2187.02,-360 2193.02,-366 2193.02,-372 2193.02,-372 2193.02,-389 2193.02,-389 2193.02,-395 2187.02,-401 2181.02,-401"/>
<text text-anchor="middle" x="2147.02" y="-389" font-family="sans" font-size="10.00">fastp_se</text>
<text text-anchor="middle" x="2147.02" y="-378" font-family="sans" font-size="10.00">s: GSM6001951</text>
<text text-anchor="middle" x="2147.02" y="-367" font-family="sans" font-size="10.00">u: L3</text>
</g>
<!-- 30&#45;&gt;27 -->
<g id="edge41" class="edge">
<title>30&#45;&gt;27</title>
<path fill="none" stroke="grey" stroke-width="2" d="M2100.85,-363.01C2097.86,-361.99 2094.9,-360.97 2092.02,-360 2050.56,-345.99 2002.95,-330.79 1969.56,-320.28"/>
<polygon fill="grey" stroke="grey" stroke-width="2" points="1970.27,-316.83 1959.68,-317.17 1968.17,-323.51 1970.27,-316.83"/>
</g>
<!-- 30&#45;&gt;46 -->
<g id="edge81" class="edge">
<title>30&#45;&gt;46</title>
<path fill="none" stroke="grey" stroke-width="2" d="M2100.77,-362.08C2097.84,-361.29 2094.9,-360.59 2092.02,-360 1836.34,-307.89 1765.75,-349.06 1506.02,-324 1480.56,-321.54 1452.38,-317.93 1428.87,-314.67"/>
<polygon fill="grey" stroke="grey" stroke-width="2" points="1429.16,-311.18 1418.77,-313.25 1428.18,-318.11 1429.16,-311.18"/>
</g>
<!-- 31 -->
<g id="node32" class="node">
<title>31</title>
<path fill="none" stroke="#d8bc56" stroke-width="2" stroke-dasharray="5,2" d="M2291.02,-401C2291.02,-401 2223.02,-401 2223.02,-401 2217.02,-401 2211.02,-395 2211.02,-389 2211.02,-389 2211.02,-372 2211.02,-372 2211.02,-366 2217.02,-360 2223.02,-360 2223.02,-360 2291.02,-360 2291.02,-360 2297.02,-360 2303.02,-366 2303.02,-372 2303.02,-372 2303.02,-389 2303.02,-389 2303.02,-395 2297.02,-401 2291.02,-401"/>
<text text-anchor="middle" x="2257.02" y="-389" font-family="sans" font-size="10.00">fastp_se</text>
<text text-anchor="middle" x="2257.02" y="-378" font-family="sans" font-size="10.00">s: GSM6001951</text>
<text text-anchor="middle" x="2257.02" y="-367" font-family="sans" font-size="10.00">u: L4</text>
</g>
<!-- 31&#45;&gt;27 -->
<g id="edge42" class="edge">
<title>31&#45;&gt;27</title>
<path fill="none" stroke="grey" stroke-width="2" d="M2210.97,-362.61C2207.96,-361.68 2204.96,-360.8 2202.02,-360 2120.92,-337.94 2023.96,-321.51 1969.54,-313.16"/>
<polygon fill="grey" stroke="grey" stroke-width="2" points="1969.97,-309.69 1959.56,-311.65 1968.92,-316.61 1969.97,-309.69"/>
</g>
<!-- 31&#45;&gt;46 -->
<g id="edge82" class="edge">
<title>31&#45;&gt;46</title>
<path fill="none" stroke="grey" stroke-width="2" d="M2210.78,-362.04C2207.84,-361.27 2204.91,-360.57 2202.02,-360 1898.22,-299.62 1814.48,-352.26 1506.02,-324 1480.55,-321.67 1452.37,-318.07 1428.86,-314.79"/>
<polygon fill="grey" stroke="grey" stroke-width="2" points="1429.15,-311.29 1418.76,-313.35 1428.17,-318.22 1429.15,-311.29"/>
</g>
<!-- 32&#45;&gt;6 -->
<g id="edge18" class="edge">
<title>32&#45;&gt;6</title>
<path fill="none" stroke="grey" stroke-width="2" d="M2334.12,-303.55C2188.84,-297.1 1607.11,-270.51 1487.03,-251.65"/>
<polygon fill="grey" stroke="grey" stroke-width="2" points="1487.61,-248.19 1477.16,-249.9 1486.4,-255.09 1487.61,-248.19"/>
</g>
<!-- 45 -->
<g id="node46" class="node">
<title>45</title>
<path fill="none" stroke="#567bd8" stroke-width="2" stroke-dasharray="5,2" d="M2174.02,-252C2174.02,-252 2094.02,-252 2094.02,-252 2088.02,-252 2082.02,-246 2082.02,-240 2082.02,-240 2082.02,-228 2082.02,-228 2082.02,-222 2088.02,-216 2094.02,-216 2094.02,-216 2174.02,-216 2174.02,-216 2180.02,-216 2186.02,-222 2186.02,-228 2186.02,-228 2186.02,-240 2186.02,-240 2186.02,-246 2180.02,-252 2174.02,-252"/>
<text text-anchor="middle" x="2134.02" y="-231.5" font-family="sans" font-size="10.00">samtools_flagstat</text>
</g>
<!-- 32&#45;&gt;45 -->
<g id="edge62" class="edge">
<title>32&#45;&gt;45</title>
<path fill="none" stroke="grey" stroke-width="2" d="M2334.13,-295.12C2298.33,-284.36 2240.26,-266.92 2195.87,-253.58"/>
<polygon fill="grey" stroke="grey" stroke-width="2" points="2196.64,-250.16 2186.05,-250.63 2194.62,-256.86 2196.64,-250.16"/>
</g>
<!-- 33 -->
<g id="node34" class="node">
<title>33</title>
<path fill="none" stroke="#d8bc56" stroke-width="2" stroke-dasharray="5,2" d="M2401.02,-401C2401.02,-401 2333.02,-401 2333.02,-401 2327.02,-401 2321.02,-395 2321.02,-389 2321.02,-389 2321.02,-372 2321.02,-372 2321.02,-366 2327.02,-360 2333.02,-360 2333.02,-360 2401.02,-360 2401.02,-360 2407.02,-360 2413.02,-366 2413.02,-372 2413.02,-372 2413.02,-389 2413.02,-389 2413.02,-395 2407.02,-401 2401.02,-401"/>
<text text-anchor="middle" x="2367.02" y="-389" font-family="sans" font-size="10.00">fastp_se</text>
<text text-anchor="middle" x="2367.02" y="-378" font-family="sans" font-size="10.00">s: GSM6001950</text>
<text text-anchor="middle" x="2367.02" y="-367" font-family="sans" font-size="10.00">u: L1</text>
</g>
<!-- 33&#45;&gt;32 -->
<g id="edge44" class="edge">
<title>33&#45;&gt;32</title>
<path fill="none" stroke="grey" stroke-width="2" d="M2367.02,-359.69C2367.02,-351.91 2367.02,-342.84 2367.02,-334.45"/>
<polygon fill="grey" stroke="grey" stroke-width="2" points="2370.52,-334.32 2367.02,-324.32 2363.52,-334.32 2370.52,-334.32"/>
</g>
<!-- 33&#45;&gt;46 -->
<g id="edge83" class="edge">
<title>33&#45;&gt;46</title>
<path fill="none" stroke="grey" stroke-width="2" d="M2320.78,-362.02C2317.84,-361.25 2314.91,-360.56 2312.02,-360 1960.08,-291.34 1863.22,-355.45 1506.02,-324 1480.54,-321.76 1452.36,-318.17 1428.86,-314.87"/>
<polygon fill="grey" stroke="grey" stroke-width="2" points="1429.15,-311.38 1418.75,-313.43 1428.16,-318.31 1429.15,-311.38"/>
</g>
<!-- 34 -->
<g id="node35" class="node">
<title>34</title>
<path fill="none" stroke="#d8bc56" stroke-width="2" stroke-dasharray="5,2" d="M2511.02,-401C2511.02,-401 2443.02,-401 2443.02,-401 2437.02,-401 2431.02,-395 2431.02,-389 2431.02,-389 2431.02,-372 2431.02,-372 2431.02,-366 2437.02,-360 2443.02,-360 2443.02,-360 2511.02,-360 2511.02,-360 2517.02,-360 2523.02,-366 2523.02,-372 2523.02,-372 2523.02,-389 2523.02,-389 2523.02,-395 2517.02,-401 2511.02,-401"/>
<text text-anchor="middle" x="2477.02" y="-389" font-family="sans" font-size="10.00">fastp_se</text>
<text text-anchor="middle" x="2477.02" y="-378" font-family="sans" font-size="10.00">s: GSM6001950</text>
<text text-anchor="middle" x="2477.02" y="-367" font-family="sans" font-size="10.00">u: L2</text>
</g>
<!-- 34&#45;&gt;32 -->
<g id="edge45" class="edge">
<title>34&#45;&gt;32</title>
<path fill="none" stroke="grey" stroke-width="2" d="M2447.26,-359.88C2433.24,-350.64 2416.43,-339.57 2401.83,-329.94"/>
<polygon fill="grey" stroke="grey" stroke-width="2" points="2403.35,-326.75 2393.07,-324.17 2399.49,-332.59 2403.35,-326.75"/>
</g>
<!-- 34&#45;&gt;46 -->
<g id="edge84" class="edge">
<title>34&#45;&gt;46</title>
<path fill="none" stroke="grey" stroke-width="2" d="M2430.79,-362C2427.85,-361.23 2424.91,-360.55 2422.02,-360 2221.98,-321.53 1709,-341.33 1506.02,-324 1480.54,-321.82 1452.36,-318.25 1428.85,-314.93"/>
<polygon fill="grey" stroke="grey" stroke-width="2" points="1429.14,-311.44 1418.75,-313.49 1428.15,-318.37 1429.14,-311.44"/>
</g>
<!-- 35 -->
<g id="node36" class="node">
<title>35</title>
<path fill="none" stroke="#d8bc56" stroke-width="2" stroke-dasharray="5,2" d="M2621.02,-401C2621.02,-401 2553.02,-401 2553.02,-401 2547.02,-401 2541.02,-395 2541.02,-389 2541.02,-389 2541.02,-372 2541.02,-372 2541.02,-366 2547.02,-360 2553.02,-360 2553.02,-360 2621.02,-360 2621.02,-360 2627.02,-360 2633.02,-366 2633.02,-372 2633.02,-372 2633.02,-389 2633.02,-389 2633.02,-395 2627.02,-401 2621.02,-401"/>
<text text-anchor="middle" x="2587.02" y="-389" font-family="sans" font-size="10.00">fastp_se</text>
<text text-anchor="middle" x="2587.02" y="-378" font-family="sans" font-size="10.00">s: GSM6001950</text>
<text text-anchor="middle" x="2587.02" y="-367" font-family="sans" font-size="10.00">u: L3</text>
</g>
<!-- 35&#45;&gt;32 -->
<g id="edge46" class="edge">
<title>35&#45;&gt;32</title>
<path fill="none" stroke="grey" stroke-width="2" d="M2540.85,-363.01C2537.86,-361.99 2534.9,-360.97 2532.02,-360 2490.56,-345.99 2442.95,-330.79 2409.56,-320.28"/>
<polygon fill="grey" stroke="grey" stroke-width="2" points="2410.27,-316.83 2399.68,-317.17 2408.17,-323.51 2410.27,-316.83"/>
</g>
<!-- 35&#45;&gt;46 -->
<g id="edge85" class="edge">
<title>35&#45;&gt;46</title>
<path fill="none" stroke="grey" stroke-width="2" d="M2540.79,-361.99C2537.85,-361.22 2534.91,-360.55 2532.02,-360 2307.9,-317.39 1733.38,-342.93 1506.02,-324 1480.53,-321.88 1452.35,-318.31 1428.85,-314.98"/>
<polygon fill="grey" stroke="grey" stroke-width="2" points="1429.14,-311.49 1418.74,-313.53 1428.14,-318.42 1429.14,-311.49"/>
</g>
<!-- 36 -->
<g id="node37" class="node">
<title>36</title>
<path fill="none" stroke="#d8bc56" stroke-width="2" stroke-dasharray="5,2" d="M2731.02,-401C2731.02,-401 2663.02,-401 2663.02,-401 2657.02,-401 2651.02,-395 2651.02,-389 2651.02,-389 2651.02,-372 2651.02,-372 2651.02,-366 2657.02,-360 2663.02,-360 2663.02,-360 2731.02,-360 2731.02,-360 2737.02,-360 2743.02,-366 2743.02,-372 2743.02,-372 2743.02,-389 2743.02,-389 2743.02,-395 2737.02,-401 2731.02,-401"/>
<text text-anchor="middle" x="2697.02" y="-389" font-family="sans" font-size="10.00">fastp_se</text>
<text text-anchor="middle" x="2697.02" y="-378" font-family="sans" font-size="10.00">s: GSM6001950</text>
<text text-anchor="middle" x="2697.02" y="-367" font-family="sans" font-size="10.00">u: L4</text>
</g>
<!-- 36&#45;&gt;32 -->
<g id="edge47" class="edge">
<title>36&#45;&gt;32</title>
<path fill="none" stroke="grey" stroke-width="2" d="M2650.97,-362.61C2647.96,-361.68 2644.96,-360.8 2642.02,-360 2560.92,-337.94 2463.96,-321.51 2409.54,-313.16"/>
<polygon fill="grey" stroke="grey" stroke-width="2" points="2409.97,-309.69 2399.56,-311.65 2408.92,-316.61 2409.97,-309.69"/>
</g>
<!-- 36&#45;&gt;46 -->
<g id="edge86" class="edge">
<title>36&#45;&gt;46</title>
<path fill="none" stroke="grey" stroke-width="2" d="M2650.79,-361.98C2647.85,-361.21 2644.91,-360.54 2642.02,-360 2393.82,-313.24 1757.76,-344.52 1506.02,-324 1480.53,-321.92 1452.35,-318.36 1428.84,-315.02"/>
<polygon fill="grey" stroke="grey" stroke-width="2" points="1429.14,-311.53 1418.74,-313.57 1428.14,-318.46 1429.14,-311.53"/>
</g>
<!-- 37&#45;&gt;5 -->
<g id="edge12" class="edge">
<title>37&#45;&gt;5</title>
<path fill="none" stroke="grey" stroke-width="2" d="M2577.49,-296.39C2507.88,-278.32 2339.11,-236.46 2195.02,-216 1928.83,-178.2 1605.26,-166.89 1490.7,-163.93"/>
<polygon fill="grey" stroke="grey" stroke-width="2" points="1490.68,-160.43 1480.6,-163.68 1490.5,-167.43 1490.68,-160.43"/>
</g>
<!-- 38&#45;&gt;0 -->
<g id="edge4" class="edge">
<title>38&#45;&gt;0</title>
<path fill="none" stroke="grey" stroke-width="2" d="M1461.78,-77.44C1434.11,-65.7 1391.09,-47.45 1360.5,-34.47"/>
<polygon fill="grey" stroke="grey" stroke-width="2" points="1361.61,-31.14 1351.04,-30.46 1358.88,-37.59 1361.61,-31.14"/>
</g>
<!-- 39 -->
<g id="node40" class="node">
<title>39</title>
<path fill="none" stroke="#d87556" stroke-width="2" stroke-dasharray="5,2" d="M1385.52,-180C1385.52,-180 1326.52,-180 1326.52,-180 1320.52,-180 1314.52,-174 1314.52,-168 1314.52,-168 1314.52,-156 1314.52,-156 1314.52,-150 1320.52,-144 1326.52,-144 1326.52,-144 1385.52,-144 1385.52,-144 1391.52,-144 1397.52,-150 1397.52,-156 1397.52,-156 1397.52,-168 1397.52,-168 1397.52,-174 1391.52,-180 1385.52,-180"/>
<text text-anchor="middle" x="1356.02" y="-159.5" font-family="sans" font-size="10.00">align_multiqc</text>
</g>
<!-- 39&#45;&gt;0 -->
<g id="edge5" class="edge">
<title>39&#45;&gt;0</title>
<path fill="none" stroke="grey" stroke-width="2" d="M1351.68,-143.85C1349.09,-133.48 1345.78,-120 1343.02,-108 1338.29,-87.34 1333.3,-63.89 1329.62,-46.25"/>
<polygon fill="grey" stroke="grey" stroke-width="2" points="1332.97,-45.18 1327.51,-36.1 1326.12,-46.6 1332.97,-45.18"/>
</g>
<!-- 40&#45;&gt;39 -->
<g id="edge51" class="edge">
<title>40&#45;&gt;39</title>
<path fill="none" stroke="grey" stroke-width="2" d="M663.11,-228.11C799.73,-215.27 1167.19,-180.74 1303.87,-167.9"/>
<polygon fill="grey" stroke="grey" stroke-width="2" points="1304.45,-171.36 1314.07,-166.94 1303.79,-164.39 1304.45,-171.36"/>
</g>
<!-- 41&#45;&gt;39 -->
<g id="edge52" class="edge">
<title>41&#45;&gt;39</title>
<path fill="none" stroke="grey" stroke-width="2" d="M944.35,-225.11C1033.83,-211.61 1215.2,-184.25 1304.28,-170.81"/>
<polygon fill="grey" stroke="grey" stroke-width="2" points="1305.05,-174.23 1314.42,-169.28 1304.01,-167.31 1305.05,-174.23"/>
</g>
<!-- 42&#45;&gt;39 -->
<g id="edge53" class="edge">
<title>42&#45;&gt;39</title>
<path fill="none" stroke="grey" stroke-width="2" d="M1242.72,-215.88C1263.04,-206.39 1288.5,-194.51 1310.13,-184.42"/>
<polygon fill="grey" stroke="grey" stroke-width="2" points="1311.87,-187.47 1319.45,-180.07 1308.91,-181.13 1311.87,-187.47"/>
</g>
<!-- 43&#45;&gt;39 -->
<g id="edge54" class="edge">
<title>43&#45;&gt;39</title>
<path fill="none" stroke="grey" stroke-width="2" d="M1500.3,-215.88C1472.12,-205.55 1436.2,-192.38 1407.24,-181.77"/>
<polygon fill="grey" stroke="grey" stroke-width="2" points="1408.31,-178.43 1397.71,-178.28 1405.9,-185.01 1408.31,-178.43"/>
</g>
<!-- 44&#45;&gt;39 -->
<g id="edge55" class="edge">
<title>44&#45;&gt;39</title>
<path fill="none" stroke="grey" stroke-width="2" d="M1726.72,-228.55C1656.2,-221.88 1526.73,-207.33 1407.62,-179.88"/>
<polygon fill="grey" stroke="grey" stroke-width="2" points="1408.13,-176.41 1397.6,-177.54 1406.54,-183.22 1408.13,-176.41"/>
</g>
<!-- 45&#45;&gt;39 -->
<g id="edge56" class="edge">
<title>45&#45;&gt;39</title>
<path fill="none" stroke="grey" stroke-width="2" d="M2081.98,-229.96C1932.36,-221.11 1505.96,-195.15 1407.44,-179.53"/>
<polygon fill="grey" stroke="grey" stroke-width="2" points="1408,-176.08 1397.54,-177.78 1406.78,-182.97 1408,-176.08"/>
</g>
<!-- 46&#45;&gt;0 -->
<g id="edge6" class="edge">
<title>46&#45;&gt;0</title>
<path fill="none" stroke="grey" stroke-width="2" d="M1363.25,-287.66C1345.93,-264.64 1317.12,-221.99 1306.02,-180 1293.84,-133.87 1305.71,-78.18 1315.1,-45.86"/>
<polygon fill="grey" stroke="grey" stroke-width="2" points="1318.47,-46.81 1318.03,-36.22 1311.77,-44.77 1318.47,-46.81"/>
</g>
<!-- 47&#45;&gt;0 -->
<g id="edge7" class="edge">
<title>47&#45;&gt;0</title>
<path fill="none" stroke="grey" stroke-width="2" d="M1365.43,-71.7C1358.9,-63.39 1350.96,-53.28 1343.78,-44.14"/>
<polygon fill="grey" stroke="grey" stroke-width="2" points="1346.39,-41.81 1337.46,-36.1 1340.89,-46.13 1346.39,-41.81"/>
</g>
</g>
</svg>
